<svg id="visual" viewBox="0 0 900 600" width="900" height="600" xmlns="http://www.w3.org/2000/svg" xmlns:xlink="http://www.w3.org/1999/xlink" version="1.1"><rect x="0" y="0" width="900" height="600" fill="#1C2431"></rect><path d="M0 496L18.8 501.3C37.7 506.7 75.3 517.3 112.8 494.7C150.3 472 187.7 416 225.2 398.8C262.7 381.7 300.3 403.3 337.8 432.2C375.3 461 412.7 497 450.2 479.7C487.7 462.3 525.3 391.7 562.8 360.3C600.3 329 637.7 337 675.2 342.8C712.7 348.7 750.3 352.3 787.8 376.7C825.3 401 862.7 446 881.3 468.5L900 491L900 601L881.3 601C862.7 601 825.3 601 787.8 601C750.3 601 712.7 601 675.2 601C637.7 601 600.3 601 562.8 601C525.3 601 487.7 601 450.2 601C412.7 601 375.3 601 337.8 601C300.3 601 262.7 601 225.2 601C187.7 601 150.3 601 112.8 601C75.3 601 37.7 601 18.8 601L0 601Z" fill="#181F2A" stroke-linecap="round" stroke-linejoin="miter"></path></svg>